<svg xmlns="http://www.w3.org/2000/svg" xmlns:xlink="http://www.w3.org/1999/xlink" version="1.1" x="0px" y="0px" viewBox="0 0 32 40" enable-background="new 0 0 32 32" xml:space="preserve"><g><g><g><path d="M14.5,27C7.607,27,2,21.393,2,14.5S7.607,2,14.5,2S27,7.607,27,14.5S21.393,27,14.5,27z M14.5,4C8.71,4,4,8.71,4,14.5     S8.71,25,14.5,25S25,20.29,25,14.5S20.29,4,14.5,4z"/></g><g><path d="M29,30c-0.256,0-0.512-0.098-0.707-0.293l-6-6c-0.391-0.391-0.391-1.023,0-1.414s1.023-0.391,1.414,0l6,6     c0.391,0.391,0.391,1.023,0,1.414C29.512,29.902,29.256,30,29,30z"/></g></g></g><text x="0" y="47" fill="#000000" font-size="5px" font-weight="bold" font-family="'Helvetica Neue', Helvetica, Arial-Unicode, Arial, Sans-serif">Created by Celcius Creative</text><text x="0" y="52" fill="#000000" font-size="5px" font-weight="bold" font-family="'Helvetica Neue', Helvetica, Arial-Unicode, Arial, Sans-serif">from the Noun Project</text></svg>